<?xml version="1.0" encoding="UTF-8" standalone="no"?>
<!-- Created with Inkscape (http://www.inkscape.org/) -->

<svg
   xmlns:dc="http://purl.org/dc/elements/1.1/"
   xmlns:cc="http://creativecommons.org/ns#"
   xmlns:rdf="http://www.w3.org/1999/02/22-rdf-syntax-ns#"
   xmlns:svg="http://www.w3.org/2000/svg"
   xmlns="http://www.w3.org/2000/svg"
   xmlns:sodipodi="http://sodipodi.sourceforge.net/DTD/sodipodi-0.dtd"
   xmlns:inkscape="http://www.inkscape.org/namespaces/inkscape"
   width="512"
   height="512"
   viewBox="0 0 135.46666 135.46667"
   version="1.1"
   id="svg8"
   inkscape:version="0.92.3 (2405546, 2018-03-11)"
   sodipodi:docname="my_logo_inkscape.svg"
   inkscape:export-filename="/FwzFiles/GitHub/plan-your-semester/my_logo.png"
   inkscape:export-xdpi="96"
   inkscape:export-ydpi="96">
  <defs
     id="defs2">
    <filter
       style="color-interpolation-filters:sRGB;"
       inkscape:label="Drop Shadow"
       id="filter4723">
      <feFlood
         flood-opacity="0.498039"
         flood-color="rgb(0,0,0)"
         result="flood"
         id="feFlood4713" />
      <feComposite
         in="flood"
         in2="SourceGraphic"
         operator="in"
         result="composite1"
         id="feComposite4715" />
      <feGaussianBlur
         in="composite1"
         stdDeviation="2"
         result="blur"
         id="feGaussianBlur4717" />
      <feOffset
         dx="5"
         dy="5"
         result="offset"
         id="feOffset4719" />
      <feComposite
         in="SourceGraphic"
         in2="offset"
         operator="over"
         result="composite2"
         id="feComposite4721" />
    </filter>
  </defs>
  <sodipodi:namedview
     id="base"
     pagecolor="#ffffff"
     bordercolor="#666666"
     borderopacity="1.0"
     inkscape:pageopacity="0.0"
     inkscape:pageshadow="2"
     inkscape:zoom="0.98994949"
     inkscape:cx="180.98821"
     inkscape:cy="210.77226"
     inkscape:document-units="mm"
     inkscape:current-layer="layer1"
     showgrid="false"
     units="px"
     inkscape:window-width="1920"
     inkscape:window-height="1016"
     inkscape:window-x="0"
     inkscape:window-y="27"
     inkscape:window-maximized="1" />
  <metadata
     id="metadata5">
    <rdf:RDF>
      <cc:Work
         rdf:about="">
        <dc:format>image/svg+xml</dc:format>
        <dc:type
           rdf:resource="http://purl.org/dc/dcmitype/StillImage" />
        <dc:title />
      </cc:Work>
    </rdf:RDF>
  </metadata>
  <g
     inkscape:label="Layer 1"
     inkscape:groupmode="layer"
     id="layer1"
     transform="translate(0,-161.53332)">
    <rect
       style="fill:#455a64;fill-opacity:1;stroke:#bdbdbd;stroke-width:0;stroke-miterlimit:4;stroke-dasharray:none;stroke-opacity:1"
       id="rect4531"
       width="135.46666"
       height="135.46666"
       x="3.5603841e-06"
       y="161.53333"
       ry="0" />
    <path
       style="fill:#ffffff;fill-opacity:1;stroke-width:0.14754324;filter:url(#filter4723)"
       d="m 15.799513,234.17247 c 8.93e-4,-26.51536 0.04297,-48.45994 0.09351,-48.76572 0.149919,-0.90708 0.921257,-2.03356 1.737264,-2.53714 l 0.725823,-0.44793 5.360335,-0.0438 5.360336,-0.0438 v 5.09711 5.09712 h 2.950864 2.950865 v -5.09025 -5.09024 H 49.880375 64.78224 v 5.09024 5.09025 h 2.950865 2.950865 v -5.09025 -5.09024 H 85.585833 100.4877 v 5.09024 5.09025 h 2.95087 2.95085 v -5.09712 -5.09711 l 5.36034,0.0438 5.36034,0.0438 0.72582,0.44793 c 0.816,0.50358 1.58734,1.63006 1.73726,2.53714 0.0505,0.30578 0.0926,22.25036 0.0935,48.76572 l 0.002,48.20975 H 67.733337 15.79812 Z m 21.392144,34.70954 v -7.74602 h -7.672248 -7.672248 v 7.74602 7.74602 h 7.672248 7.672248 z m 19.14505,-0.0382 0.0382,-7.71045 -7.710451,0.0382 -7.71045,0.0382 -0.03838,7.52471 c -0.02111,4.13858 -0.0064,7.60829 0.03276,7.71046 0.05618,0.14669 1.67771,0.17773 7.710625,0.14755 l 7.639484,-0.0382 z m 19.068647,0.0382 v -7.74602 h -7.672249 -7.672247 v 7.74602 7.74602 h 7.672247 7.672249 z m 19.10685,0 v -7.67225 l -7.70914,-0.0382 -7.709131,-0.0382 v 7.64896 c 0,4.20694 0.04489,7.69384 0.09967,7.74866 0.05479,0.0548 3.523939,0.0825 7.70914,0.0615 l 7.609456,-0.0382 z m 19.106846,0 v -7.74602 h -7.67225 -7.672251 v 7.74602 7.74602 h 7.672251 7.67225 z M 37.191657,248.22463 v -7.74734 l -7.635362,0.0382 -7.635362,0.0382 -0.0382,7.70913 -0.03821,7.70913 h 7.673564 7.673564 z m 19.14505,0.0382 -0.0382,-7.70913 h -7.67225 -7.672247 l -0.03838,7.5247 c -0.02111,4.1386 -0.0066,7.6077 0.03225,7.70914 0.05525,0.14428 1.742305,0.18442 7.748827,0.18442 h 7.678195 z m 19.068647,-0.0369 v -7.74602 h -7.672249 -7.672247 v 7.74602 7.74601 h 7.672247 7.672249 z m 19.10685,0 v -7.67225 h -7.67225 -7.672251 l -0.03822,7.71044 -0.03822,7.71046 7.710455,-0.0382 7.710445,-0.0382 z m 19.071266,0.0369 -0.0382,-7.70913 -7.63537,-0.0382 -7.635359,-0.0382 v 7.74734 7.74735 h 7.673569 7.67356 z M 37.191657,227.64368 v -7.67225 h -7.672248 -7.672248 v 7.67225 7.67225 h 7.672248 7.672248 z m 19.18062,0 v -7.67225 h -7.74602 -7.746019 v 7.67225 7.67225 h 7.746019 7.74602 z m 19.033077,0 v -7.67225 h -7.672249 -7.672247 v 7.67225 7.67225 h 7.672247 7.672249 z m 19.180621,0 v -7.67225 h -7.746021 -7.746021 v 7.67225 7.67225 h 7.746021 7.746021 z m 19.033075,0 v -7.67225 h -7.67225 -7.672251 v 7.67225 7.67225 h 7.672251 7.67225 z m 0,-22.13149 v -5.01646 H 67.733105 21.847161 v 5.01646 5.01648 H 67.733105 113.61905 Z M 30.109582,183.82334 v -7.67225 h 1.918062 1.918062 v 7.67225 7.67224 h -1.918062 -1.918062 z m 35.705462,0 v -7.67225 h 1.918061 1.918062 v 7.67225 7.67224 h -1.918062 -1.918061 z m 35.705456,0 v -7.67225 h 1.91807 1.91805 v 7.67225 7.67224 h -1.91805 -1.91807 z"
       id="path4533"
       inkscape:connector-curvature="0"
       transform="matrix(0.89707593,0,0,0.89707593,6.9713974,23.597057)" />
  </g>
</svg>
