<?xml version="1.0" encoding="UTF-8" standalone="no"?>
<!-- Created with Inkscape (http://www.inkscape.org/) -->

<svg
   xmlns:dc="http://purl.org/dc/elements/1.1/"
   xmlns:cc="http://creativecommons.org/ns#"
   xmlns:rdf="http://www.w3.org/1999/02/22-rdf-syntax-ns#"
   xmlns:svg="http://www.w3.org/2000/svg"
   xmlns="http://www.w3.org/2000/svg"
   xmlns:sodipodi="http://sodipodi.sourceforge.net/DTD/sodipodi-0.dtd"
   xmlns:inkscape="http://www.inkscape.org/namespaces/inkscape"
   width="512"
   height="512"
   viewBox="0 0 135.46666 135.46667"
   version="1.1"
   id="svg8"
   inkscape:version="0.92.3 (2405546, 2018-03-11)"
   sodipodi:docname="notification_icon_inkscape.svg"
   inkscape:export-filename="/FwzFiles/GitHub/plan-your-semester/notification_icon.png"
   inkscape:export-xdpi="96"
   inkscape:export-ydpi="96">
  <defs
     id="defs2">
    <filter
       style="color-interpolation-filters:sRGB;"
       inkscape:label="Drop Shadow"
       id="filter4723">
      <feFlood
         flood-opacity="0.498039"
         flood-color="rgb(0,0,0)"
         result="flood"
         id="feFlood4713" />
      <feComposite
         in="flood"
         in2="SourceGraphic"
         operator="in"
         result="composite1"
         id="feComposite4715" />
      <feGaussianBlur
         in="composite1"
         stdDeviation="2"
         result="blur"
         id="feGaussianBlur4717" />
      <feOffset
         dx="5"
         dy="5"
         result="offset"
         id="feOffset4719" />
      <feComposite
         in="SourceGraphic"
         in2="offset"
         operator="over"
         result="composite2"
         id="feComposite4721" />
    </filter>
  </defs>
  <sodipodi:namedview
     id="base"
     pagecolor="#ffffff"
     bordercolor="#666666"
     borderopacity="1.0"
     inkscape:pageopacity="0.0"
     inkscape:pageshadow="2"
     inkscape:zoom="0.98994949"
     inkscape:cx="142.60241"
     inkscape:cy="210.77226"
     inkscape:document-units="mm"
     inkscape:current-layer="layer1"
     showgrid="false"
     units="px"
     inkscape:window-width="1920"
     inkscape:window-height="1016"
     inkscape:window-x="0"
     inkscape:window-y="27"
     inkscape:window-maximized="1" />
  <metadata
     id="metadata5">
    <rdf:RDF>
      <cc:Work
         rdf:about="">
        <dc:format>image/svg+xml</dc:format>
        <dc:type
           rdf:resource="http://purl.org/dc/dcmitype/StillImage" />
        <dc:title></dc:title>
      </cc:Work>
    </rdf:RDF>
  </metadata>
  <g
     inkscape:label="Layer 1"
     inkscape:groupmode="layer"
     id="layer1"
     transform="translate(0,-161.53332)">
    <path
       inkscape:connector-curvature="0"
       id="path1488"
       d="m 10.850661,234.38578 c 0,-47.16786 0.02738,-53.13673 0.246906,-53.78093 0.34372,-1.00878 1.059603,-1.81592 2.046949,-2.30795 l 0.839976,-0.41857 h 5.705019 5.705017 v 5.47706 c 0,4.84529 0.02948,5.48837 0.255615,5.57514 0.503826,0.19334 5.809783,0.1088 6.014407,-0.0958 0.143061,-0.14306 0.193918,-1.60521 0.193918,-5.57514 v -5.38124 h 16.321448 16.321449 v 5.38124 c 0,3.96993 0.05085,5.43208 0.193918,5.57514 0.2728,0.2728 5.803302,0.2728 6.076103,0 0.143061,-0.14306 0.193918,-1.60521 0.193918,-5.57514 v -5.38124 h 16.321448 16.321438 v 5.38124 c 0,3.96993 0.0509,5.43208 0.19393,5.57514 0.20462,0.20462 5.51058,0.28916 6.01441,0.0958 0.22612,-0.0867 0.25561,-0.72985 0.25561,-5.57514 v -5.47706 h 5.70502 5.70502 l 0.83997,0.41857 c 0.98734,0.49203 1.70323,1.29917 2.04695,2.30795 0.2195,0.6442 0.2469,6.61307 0.2469,53.78093 v 53.05633 H 67.733334 10.850661 Z m 23.431784,38.28736 c 0,-7.42404 -0.02711,-8.31544 -0.255614,-8.40312 -0.140587,-0.054 -3.834729,-0.0981 -8.209204,-0.0981 -5.97066,0 -8.001937,0.0484 -8.147509,0.19392 -0.145668,0.14567 -0.193915,2.20971 -0.193915,8.29539 0,4.45581 0.04851,8.14995 0.107732,8.20921 0.05928,0.0593 3.840657,0.10773 8.403121,0.10773 h 8.295389 z m 20.909717,8.04941 c 0.05395,-0.14059 0.09809,-3.79901 0.09809,-8.12983 0,-6.04489 -0.04693,-7.93816 -0.201998,-8.1494 -0.186349,-0.25386 -0.834222,-0.27191 -8.362723,-0.23289 l -8.160723,0.0423 -0.04186,8.36273 -0.04186,8.36271 h 8.306489 c 7.425357,0 8.316892,-0.0272 8.404575,-0.25561 z m 20.905392,-8.05624 c 0.03298,-6.47775 -0.0014,-8.25858 -0.161598,-8.36025 -0.234815,-0.14907 -15.965224,-0.18375 -16.350128,-0.0361 -0.228439,0.0877 -0.255615,0.96959 -0.255615,8.29539 0,4.50851 0.04913,8.24643 0.109184,8.30648 0.06005,0.0601 3.823276,0.0904 8.362721,0.0674 l 8.253539,-0.0419 z m 20.846163,-0.0509 -0.0419,-8.36273 -8.160723,-0.0423 c -7.528499,-0.039 -8.176372,-0.0209 -8.362721,0.23288 -0.155071,0.21124 -0.201998,2.10451 -0.201998,8.1494 0,4.33083 0.04414,7.98925 0.09809,8.12984 0.08768,0.2285 0.979218,0.25561 8.404575,0.25561 h 8.306491 z m 21.007853,0.13958 c 0.0302,-5.87826 -0.009,-8.20363 -0.14098,-8.36274 -0.14992,-0.18064 -1.61904,-0.22037 -8.14901,-0.22037 -4.38137,0 -8.08116,0.0441 -8.22174,0.0981 -0.2285,0.0877 -0.25561,0.97922 -0.25561,8.40458 v 8.30649 l 8.36272,-0.0418 8.36272,-0.0419 z M 34.026831,258.4179 c 0.2285,-0.0877 0.255614,-0.97922 0.255614,-8.40457 v -8.3065 l -8.362721,0.0418 -8.362719,0.0419 -0.0419,8.14235 c -0.03025,5.87825 0.0089,8.20363 0.140982,8.36273 0.14992,0.18064 1.61903,0.22037 8.149017,0.22037 4.381367,0 8.081148,-0.0441 8.221735,-0.0981 z m 21.069501,-0.0958 c 0.145572,-0.14557 0.193918,-2.17685 0.193918,-8.14751 0,-4.37448 -0.04414,-8.06862 -0.09809,-8.2092 -0.08768,-0.2285 -0.979091,-0.25562 -8.403122,-0.25562 h -8.305033 v 8.29539 c 0,4.56247 0.04848,8.34387 0.107732,8.40312 0.05925,0.0593 3.753393,0.10774 8.209203,0.10774 6.08568,0 8.149721,-0.0483 8.29539,-0.19392 z m 20.839624,0.0598 c 0.160147,-0.10166 0.194571,-1.8825 0.161598,-8.36023 l -0.0419,-8.23107 H 67.733333 59.41101 l -0.0419,8.23107 c -0.03298,6.47773 0.0014,8.25857 0.161599,8.36023 0.111922,0.071 3.803103,0.12919 8.202621,0.12919 4.399519,0 8.090699,-0.0581 8.202622,-0.12919 z m 21.007761,-8.30938 0.04181,-8.36272 h -8.30649 c -7.425358,0 -8.316893,0.0272 -8.404576,0.25561 -0.177771,0.46327 -0.11124,15.90091 0.06999,16.23954 0.163511,0.30553 0.390572,0.31291 8.362723,0.27218 l 8.194644,-0.0419 z m 20.866873,8.22315 c 0.13203,-0.15908 0.17124,-2.48447 0.14098,-8.36271 l -0.0419,-8.14236 -8.36272,-0.0419 -8.36272,-0.0418 v 8.31032 c 0,6.49704 0.044,8.32809 0.20199,8.39181 0.1111,0.0449 3.81088,0.0872 8.22174,0.0943 6.58692,0.0106 8.05241,-0.0266 8.20263,-0.20762 z m -83.608944,-30.8066 v -8.32232 h -8.322322 -8.322319 l -0.04207,8.16071 c -0.02312,4.48841 -0.0069,8.25229 0.0359,8.3642 0.06155,0.16066 1.821402,0.19466 8.364365,0.1616 l 8.286431,-0.0419 z m 20.894686,8.2092 c 0.225058,-0.22506 0.282743,-16.06061 0.05978,-16.41182 -0.101668,-0.16015 -1.882507,-0.19457 -8.360246,-0.16161 l -8.231061,0.0419 -0.04204,8.16071 c -0.02312,4.48841 -0.0072,8.25163 0.03533,8.36272 0.110097,0.28745 16.250994,0.29534 16.538241,0.008 z m 20.959325,-8.2092 v -8.32232 h -8.322323 -8.322323 l -0.04204,8.16071 c -0.02312,4.48841 -0.0069,8.25229 0.03589,8.3642 0.06154,0.16066 1.821402,0.19466 8.364366,0.1616 l 8.28643,-0.0419 z m 20.846203,0 v -8.32232 l -8.231059,-0.0419 c -6.477739,-0.0329 -8.258579,0.002 -8.360246,0.16161 -0.07105,0.11193 -0.130302,3.80673 -0.131663,8.2107 -0.0019,6.04844 0.04531,8.055 0.192907,8.20258 0.148745,0.14874 2.144819,0.18539 8.362722,0.15352 l 8.167339,-0.0418 z m 21.00781,0 v -8.32232 h -8.32232 -8.32232 l -0.0421,8.16071 c -0.0231,4.48841 -0.007,8.25229 0.0359,8.3642 0.0616,0.16066 1.82141,0.19466 8.36437,0.1616 l 8.28643,-0.0419 z m -0.0983,-18.96675 c 0.13075,-0.15754 0.17139,-1.70616 0.14099,-5.37315 l -0.0427,-5.15183 H 67.733334 17.557005 l -0.04268,5.15183 c -0.03042,3.66699 0.01026,5.21561 0.140983,5.37315 0.275176,0.33156 99.880932,0.33156 100.156092,0 z M 26.525717,179.74993 c 0,-4.48114 -0.04414,-8.26254 -0.09809,-8.40312 -0.08648,-0.22537 0.16209,-0.25562 2.100779,-0.25562 h 2.198869 v 8.40313 8.40312 h -2.10078 -2.100781 z m 39.106837,-0.25561 v -8.40313 h 2.10078 2.100781 v 8.40313 8.40312 h -2.100781 -2.10078 z m 39.106836,0 v -8.40313 h 2.19887 c 1.93869,0 2.18727,0.0302 2.10078,0.25562 -0.054,0.14058 -0.0981,3.92198 -0.0981,8.40312 v 8.14751 h -2.10077 -2.10078 z"
       style="fill:#414141;stroke-width:0.16159849" />
  </g>
</svg>
